<svg xmlns="http://www.w3.org/2000/svg" xmlns:xlink="http://www.w3.org/1999/xlink" width="100" zoomAndPan="magnify" viewBox="0 0 75 74.999997" height="100" preserveAspectRatio="xMidYMid meet" version="1.0"><defs><clipPath id="cd6c01c746"><path d="M 13 3.75 L 62 3.75 L 62 71.25 L 13 71.25 Z M 13 3.75 " clip-rule="nonzero"/></clipPath><clipPath id="a22e116238"><path d="M 64 15 L 74.894531 15 L 74.894531 27 L 64 27 Z M 64 15 " clip-rule="nonzero"/></clipPath></defs><g clip-path="url(#cd6c01c746)"><path fill="#9a9a9a" d="M 55.433594 71.273438 L 18.914062 71.273438 C 18.542969 71.273438 18.171875 71.234375 17.808594 71.164062 C 17.441406 71.089844 17.085938 70.980469 16.742188 70.839844 C 16.398438 70.695312 16.070312 70.519531 15.761719 70.3125 C 15.453125 70.105469 15.164062 69.871094 14.902344 69.609375 C 14.636719 69.34375 14.402344 69.058594 14.195312 68.746094 C 13.988281 68.4375 13.8125 68.109375 13.671875 67.765625 C 13.527344 67.421875 13.417969 67.066406 13.347656 66.703125 C 13.273438 66.335938 13.238281 65.96875 13.238281 65.59375 L 13.238281 9.480469 C 13.238281 9.109375 13.273438 8.738281 13.347656 8.375 C 13.417969 8.007812 13.527344 7.652344 13.671875 7.308594 C 13.8125 6.964844 13.988281 6.636719 14.195312 6.328125 C 14.402344 6.015625 14.636719 5.730469 14.902344 5.46875 C 15.164062 5.203125 15.453125 4.96875 15.761719 4.761719 C 16.070312 4.554688 16.398438 4.378906 16.742188 4.234375 C 17.085938 4.09375 17.441406 3.984375 17.808594 3.914062 C 18.171875 3.839844 18.542969 3.800781 18.914062 3.800781 L 55.433594 3.800781 C 55.804688 3.800781 56.171875 3.839844 56.539062 3.914062 C 56.90625 3.984375 57.257812 4.09375 57.605469 4.234375 C 57.949219 4.378906 58.273438 4.554688 58.585938 4.761719 C 58.894531 4.96875 59.183594 5.203125 59.445312 5.46875 C 59.707031 5.730469 59.945312 6.015625 60.152344 6.328125 C 60.359375 6.636719 60.535156 6.964844 60.675781 7.308594 C 60.820312 7.652344 60.925781 8.007812 61 8.375 C 61.074219 8.738281 61.109375 9.109375 61.109375 9.480469 L 61.109375 65.597656 C 61.109375 65.96875 61.074219 66.335938 61 66.703125 C 60.925781 67.070312 60.820312 67.421875 60.675781 67.769531 C 60.53125 68.113281 60.359375 68.4375 60.152344 68.75 C 59.945312 69.058594 59.707031 69.34375 59.445312 69.609375 C 59.179688 69.871094 58.894531 70.109375 58.585938 70.316406 C 58.273438 70.523438 57.949219 70.695312 57.601562 70.839844 C 57.257812 70.980469 56.90625 71.089844 56.539062 71.164062 C 56.171875 71.234375 55.804688 71.273438 55.433594 71.273438 Z M 18.914062 5.339844 C 18.644531 5.339844 18.375 5.363281 18.105469 5.417969 C 17.839844 5.472656 17.582031 5.550781 17.328125 5.652344 C 17.078125 5.757812 16.839844 5.886719 16.613281 6.035156 C 16.386719 6.1875 16.175781 6.359375 15.984375 6.550781 C 15.792969 6.746094 15.621094 6.953125 15.46875 7.179688 C 15.316406 7.40625 15.191406 7.644531 15.085938 7.894531 C 14.984375 8.148438 14.902344 8.40625 14.851562 8.671875 C 14.796875 8.941406 14.769531 9.210938 14.769531 9.480469 L 14.769531 65.597656 C 14.769531 65.871094 14.796875 66.140625 14.851562 66.40625 C 14.902344 66.671875 14.984375 66.933594 15.085938 67.183594 C 15.191406 67.433594 15.316406 67.671875 15.46875 67.898438 C 15.621094 68.125 15.792969 68.335938 15.984375 68.527344 C 16.175781 68.71875 16.386719 68.890625 16.613281 69.042969 C 16.839844 69.195312 17.078125 69.320312 17.328125 69.425781 C 17.582031 69.53125 17.839844 69.609375 18.105469 69.660156 C 18.375 69.714844 18.644531 69.742188 18.914062 69.742188 L 55.433594 69.742188 C 55.703125 69.742188 55.972656 69.714844 56.238281 69.660156 C 56.507812 69.609375 56.765625 69.53125 57.015625 69.425781 C 57.269531 69.320312 57.507812 69.195312 57.734375 69.042969 C 57.960938 68.890625 58.167969 68.71875 58.363281 68.527344 C 58.554688 68.335938 58.726562 68.125 58.878906 67.898438 C 59.027344 67.671875 59.15625 67.433594 59.261719 67.183594 C 59.363281 66.933594 59.441406 66.671875 59.496094 66.40625 C 59.546875 66.140625 59.574219 65.871094 59.574219 65.597656 L 59.574219 9.480469 C 59.574219 9.207031 59.546875 8.9375 59.496094 8.671875 C 59.441406 8.40625 59.363281 8.144531 59.261719 7.894531 C 59.15625 7.644531 59.027344 7.40625 58.878906 7.179688 C 58.726562 6.953125 58.554688 6.742188 58.363281 6.550781 C 58.167969 6.359375 57.960938 6.1875 57.734375 6.035156 C 57.507812 5.882812 57.269531 5.757812 57.015625 5.652344 C 56.765625 5.546875 56.507812 5.46875 56.238281 5.417969 C 55.972656 5.363281 55.703125 5.335938 55.433594 5.335938 Z M 18.914062 5.339844 " fill-opacity="1" fill-rule="nonzero"/></g><path fill="#9a9a9a" d="M 56.695312 62.15625 L 17.652344 62.15625 C 17.441406 62.15625 17.261719 62.078125 17.113281 61.929688 C 16.960938 61.78125 16.886719 61.597656 16.886719 61.386719 L 16.886719 13.691406 C 16.886719 13.476562 16.960938 13.296875 17.113281 13.148438 C 17.261719 12.996094 17.441406 12.921875 17.652344 12.921875 L 56.695312 12.921875 C 56.90625 12.921875 57.089844 12.996094 57.238281 13.148438 C 57.386719 13.296875 57.460938 13.476562 57.460938 13.691406 L 57.460938 61.386719 C 57.460938 61.597656 57.386719 61.78125 57.238281 61.929688 C 57.089844 62.078125 56.90625 62.15625 56.695312 62.15625 Z M 18.421875 60.621094 L 55.929688 60.621094 L 55.929688 14.457031 L 18.421875 14.457031 Z M 18.421875 60.621094 " fill-opacity="1" fill-rule="nonzero"/><path fill="#9a9a9a" d="M 42.902344 10.015625 L 31.445312 10.015625 C 31.234375 10.015625 31.050781 9.9375 30.902344 9.789062 C 30.753906 9.640625 30.675781 9.457031 30.675781 9.246094 C 30.675781 9.035156 30.753906 8.855469 30.902344 8.703125 C 31.050781 8.554688 31.234375 8.480469 31.445312 8.480469 L 42.902344 8.480469 C 43.113281 8.480469 43.292969 8.554688 43.445312 8.703125 C 43.59375 8.855469 43.667969 9.035156 43.667969 9.246094 C 43.667969 9.457031 43.59375 9.640625 43.445312 9.789062 C 43.292969 9.9375 43.113281 10.015625 42.902344 10.015625 Z M 42.902344 10.015625 " fill-opacity="1" fill-rule="nonzero"/><path fill="#9a9a9a" d="M 28.625 10.015625 L 27.308594 10.015625 C 27.097656 10.015625 26.917969 9.9375 26.765625 9.789062 C 26.617188 9.640625 26.542969 9.457031 26.542969 9.246094 C 26.542969 9.035156 26.617188 8.855469 26.765625 8.703125 C 26.917969 8.554688 27.097656 8.480469 27.308594 8.480469 L 28.625 8.480469 C 28.835938 8.480469 29.015625 8.554688 29.167969 8.703125 C 29.316406 8.855469 29.390625 9.035156 29.390625 9.246094 C 29.390625 9.457031 29.316406 9.640625 29.167969 9.789062 C 29.015625 9.9375 28.835938 10.015625 28.625 10.015625 Z M 28.625 10.015625 " fill-opacity="1" fill-rule="nonzero"/><path fill="#9a9a9a" d="M 37.171875 68.851562 C 36.78125 68.851562 36.402344 68.777344 36.039062 68.625 C 35.675781 68.476562 35.355469 68.261719 35.078125 67.984375 C 34.800781 67.707031 34.585938 67.386719 34.4375 67.023438 C 34.285156 66.660156 34.210938 66.28125 34.210938 65.890625 C 34.210938 65.496094 34.285156 65.121094 34.4375 64.757812 C 34.585938 64.394531 34.800781 64.074219 35.078125 63.796875 C 35.355469 63.519531 35.675781 63.304688 36.039062 63.152344 C 36.402344 63.003906 36.78125 62.929688 37.171875 62.929688 C 37.566406 62.929688 37.941406 63.003906 38.304688 63.152344 C 38.667969 63.304688 38.988281 63.519531 39.265625 63.796875 C 39.542969 64.074219 39.757812 64.394531 39.910156 64.757812 C 40.058594 65.121094 40.132812 65.496094 40.132812 65.890625 C 40.132812 66.285156 40.058594 66.660156 39.90625 67.023438 C 39.757812 67.386719 39.542969 67.707031 39.265625 67.984375 C 38.988281 68.261719 38.667969 68.476562 38.304688 68.625 C 37.941406 68.777344 37.566406 68.851562 37.171875 68.851562 Z M 37.171875 64.460938 C 36.984375 64.460938 36.800781 64.5 36.625 64.570312 C 36.453125 64.644531 36.296875 64.746094 36.164062 64.878906 C 36.03125 65.015625 35.925781 65.167969 35.855469 65.34375 C 35.78125 65.519531 35.746094 65.699219 35.746094 65.890625 C 35.746094 66.078125 35.78125 66.261719 35.851562 66.433594 C 35.925781 66.609375 36.027344 66.765625 36.164062 66.898438 C 36.296875 67.03125 36.449219 67.136719 36.625 67.207031 C 36.800781 67.28125 36.980469 67.316406 37.171875 67.316406 C 37.359375 67.316406 37.542969 67.28125 37.71875 67.207031 C 37.890625 67.136719 38.046875 67.035156 38.179688 66.898438 C 38.316406 66.765625 38.417969 66.613281 38.492188 66.4375 C 38.5625 66.261719 38.597656 66.078125 38.597656 65.890625 C 38.597656 65.703125 38.5625 65.519531 38.492188 65.34375 C 38.417969 65.171875 38.316406 65.015625 38.179688 64.882812 C 38.046875 64.746094 37.894531 64.644531 37.71875 64.570312 C 37.542969 64.5 37.363281 64.464844 37.171875 64.460938 Z M 37.171875 64.460938 " fill-opacity="1" fill-rule="nonzero"/><path fill="#9a9a9a" d="M 31.882812 24.953125 C 31.355469 24.71875 30.933594 24.351562 30.628906 23.859375 C 30.324219 23.367188 30.183594 22.828125 30.207031 22.25 L 30.207031 17.828125 C 30.203125 17.6875 30.25 17.566406 30.351562 17.464844 C 30.445312 17.359375 30.566406 17.308594 30.707031 17.308594 C 30.851562 17.308594 30.972656 17.359375 31.074219 17.460938 C 31.171875 17.5625 31.222656 17.683594 31.222656 17.824219 L 31.222656 22.28125 C 31.210938 22.691406 31.3125 23.070312 31.53125 23.421875 C 31.734375 23.734375 32.003906 23.96875 32.339844 24.125 C 33.058594 24.457031 33.773438 24.457031 34.492188 24.125 C 34.828125 23.96875 35.097656 23.734375 35.300781 23.421875 C 35.519531 23.070312 35.621094 22.691406 35.609375 22.28125 L 35.609375 17.828125 C 35.605469 17.6875 35.652344 17.566406 35.753906 17.464844 C 35.851562 17.359375 35.96875 17.308594 36.113281 17.308594 C 36.253906 17.308594 36.375 17.359375 36.476562 17.460938 C 36.574219 17.5625 36.625 17.683594 36.625 17.824219 L 36.625 22.246094 C 36.648438 22.859375 36.492188 23.421875 36.15625 23.933594 C 35.851562 24.386719 35.449219 24.726562 34.949219 24.953125 C 34.464844 25.179688 33.953125 25.289062 33.414062 25.289062 C 32.878906 25.289062 32.367188 25.179688 31.882812 24.953125 Z M 31.882812 24.953125 " fill-opacity="1" fill-rule="nonzero"/><path fill="#9a9a9a" d="M 33.417969 25.445312 C 32.859375 25.445312 32.328125 25.328125 31.820312 25.097656 C 31.261719 24.847656 30.824219 24.460938 30.5 23.945312 C 30.175781 23.425781 30.027344 22.859375 30.050781 22.25 L 30.050781 17.828125 C 30.050781 17.53125 30.183594 17.324219 30.457031 17.210938 C 30.730469 17.097656 30.972656 17.144531 31.179688 17.355469 C 31.3125 17.484375 31.378906 17.640625 31.378906 17.828125 L 31.378906 22.28125 C 31.367188 22.664062 31.460938 23.019531 31.664062 23.34375 C 31.851562 23.632812 32.101562 23.847656 32.410156 23.992188 C 33.085938 24.300781 33.757812 24.300781 34.429688 23.992188 C 34.742188 23.847656 34.992188 23.632812 35.179688 23.34375 C 35.378906 23.019531 35.472656 22.667969 35.460938 22.285156 L 35.460938 17.828125 C 35.457031 17.53125 35.59375 17.324219 35.867188 17.210938 C 36.140625 17.097656 36.382812 17.144531 36.589844 17.355469 C 36.722656 17.484375 36.789062 17.640625 36.785156 17.828125 L 36.785156 22.25 C 36.808594 22.859375 36.660156 23.421875 36.339844 23.941406 C 36.019531 24.460938 35.578125 24.847656 35.019531 25.097656 C 34.511719 25.332031 33.976562 25.445312 33.417969 25.445312 Z M 30.707031 17.464844 C 30.609375 17.460938 30.527344 17.496094 30.460938 17.570312 C 30.390625 17.640625 30.355469 17.726562 30.359375 17.828125 L 30.359375 22.246094 C 30.339844 22.824219 30.488281 23.359375 30.800781 23.84375 C 31.089844 24.277344 31.472656 24.601562 31.949219 24.816406 C 32.414062 25.03125 32.902344 25.136719 33.417969 25.136719 C 33.929688 25.136719 34.417969 25.03125 34.886719 24.816406 C 35.359375 24.601562 35.742188 24.277344 36.03125 23.84375 C 36.347656 23.359375 36.492188 22.828125 36.472656 22.246094 L 36.472656 17.828125 C 36.472656 17.667969 36.402344 17.558594 36.253906 17.496094 C 36.109375 17.433594 35.980469 17.460938 35.867188 17.570312 C 35.796875 17.640625 35.761719 17.726562 35.761719 17.828125 L 35.761719 22.28125 C 35.777344 22.722656 35.664062 23.132812 35.429688 23.507812 C 35.210938 23.84375 34.921875 24.097656 34.554688 24.269531 C 33.796875 24.617188 33.035156 24.617188 32.277344 24.269531 C 31.914062 24.097656 31.621094 23.84375 31.402344 23.507812 C 31.167969 23.132812 31.054688 22.722656 31.070312 22.28125 L 31.070312 17.828125 C 31.070312 17.726562 31.035156 17.640625 30.960938 17.574219 C 30.894531 17.5 30.808594 17.464844 30.707031 17.464844 Z M 30.707031 17.464844 " fill-opacity="1" fill-rule="nonzero"/><path fill="#9a9a9a" d="M 38.289062 25.097656 C 38.195312 25.007812 38.148438 24.898438 38.152344 24.765625 C 38.148438 24.648438 38.183594 24.546875 38.25 24.453125 L 40.835938 21.269531 L 38.273438 18.113281 C 38.203125 18.023438 38.171875 17.917969 38.171875 17.800781 C 38.167969 17.664062 38.214844 17.546875 38.3125 17.449219 C 38.410156 17.351562 38.527344 17.304688 38.664062 17.308594 C 38.75 17.308594 38.828125 17.328125 38.902344 17.363281 C 38.972656 17.398438 39.03125 17.449219 39.078125 17.511719 L 41.441406 20.511719 L 43.804688 17.488281 C 43.894531 17.359375 44.015625 17.300781 44.171875 17.308594 C 44.308594 17.308594 44.421875 17.355469 44.519531 17.449219 C 44.617188 17.542969 44.667969 17.65625 44.664062 17.789062 C 44.667969 17.894531 44.636719 17.988281 44.574219 18.070312 L 41.988281 21.261719 L 44.574219 24.4375 C 44.648438 24.523438 44.679688 24.621094 44.675781 24.730469 C 44.679688 24.867188 44.632812 24.988281 44.535156 25.089844 C 44.425781 25.199219 44.292969 25.246094 44.136719 25.230469 C 43.980469 25.21875 43.859375 25.148438 43.769531 25.019531 L 41.375 22.007812 L 39.011719 25.03125 C 38.914062 25.164062 38.785156 25.230469 38.621094 25.234375 C 38.492188 25.234375 38.382812 25.191406 38.289062 25.097656 Z M 38.289062 25.097656 " fill-opacity="1" fill-rule="nonzero"/><path fill="#9a9a9a" d="M 44.171875 25.390625 C 43.945312 25.390625 43.769531 25.300781 43.644531 25.113281 L 41.375 22.261719 L 39.132812 25.128906 C 39.019531 25.285156 38.867188 25.371094 38.675781 25.386719 C 38.484375 25.402344 38.320312 25.34375 38.183594 25.207031 C 38.058594 25.085938 37.996094 24.941406 37.996094 24.765625 C 37.996094 24.617188 38.039062 24.484375 38.128906 24.363281 L 40.640625 21.269531 L 38.15625 18.210938 C 38.0625 18.089844 38.019531 17.953125 38.023438 17.800781 C 38.015625 17.621094 38.078125 17.46875 38.207031 17.339844 C 38.4375 17.121094 38.691406 17.082031 38.972656 17.230469 C 39.066406 17.273438 39.144531 17.339844 39.203125 17.417969 L 41.441406 20.261719 L 43.683594 17.394531 C 43.804688 17.25 43.957031 17.171875 44.144531 17.160156 C 44.332031 17.148438 44.492188 17.207031 44.625 17.339844 C 44.757812 17.460938 44.824219 17.613281 44.820312 17.792969 C 44.820312 17.929688 44.78125 18.050781 44.703125 18.160156 L 42.1875 21.261719 L 44.695312 24.34375 C 44.789062 24.453125 44.835938 24.582031 44.832031 24.726562 C 44.835938 24.90625 44.773438 25.0625 44.648438 25.191406 C 44.519531 25.328125 44.359375 25.394531 44.171875 25.390625 Z M 41.371094 21.765625 L 43.886719 24.929688 C 43.980469 25.078125 44.113281 25.125 44.28125 25.074219 C 44.445312 25.023438 44.527344 24.910156 44.519531 24.734375 C 44.527344 24.660156 44.503906 24.597656 44.460938 24.546875 L 41.792969 21.265625 L 44.457031 17.976562 C 44.496094 17.921875 44.511719 17.859375 44.511719 17.792969 C 44.515625 17.703125 44.480469 17.625 44.414062 17.5625 C 44.347656 17.496094 44.265625 17.464844 44.171875 17.46875 C 44.070312 17.457031 43.988281 17.492188 43.929688 17.578125 L 41.441406 20.761719 L 38.960938 17.609375 C 38.925781 17.566406 38.882812 17.53125 38.832031 17.507812 C 38.683594 17.429688 38.546875 17.445312 38.421875 17.5625 C 38.355469 17.628906 38.324219 17.710938 38.328125 17.804688 C 38.324219 17.886719 38.347656 17.960938 38.398438 18.027344 L 41.035156 21.269531 L 38.371094 24.546875 C 38.324219 24.609375 38.300781 24.683594 38.304688 24.761719 C 38.304688 24.851562 38.335938 24.925781 38.398438 24.984375 C 38.46875 25.058594 38.558594 25.089844 38.660156 25.082031 C 38.761719 25.070312 38.839844 25.023438 38.894531 24.933594 Z M 41.371094 21.765625 " fill-opacity="1" fill-rule="nonzero"/><path fill="#9a9a9a" d="M 33.027344 39.546875 C 32.496094 39.308594 32.078125 38.945312 31.773438 38.449219 C 31.464844 37.957031 31.324219 37.417969 31.347656 36.835938 L 31.347656 32.417969 C 31.347656 32.273438 31.394531 32.152344 31.496094 32.050781 C 31.589844 31.949219 31.710938 31.898438 31.851562 31.898438 C 31.996094 31.898438 32.117188 31.949219 32.214844 32.050781 C 32.316406 32.152344 32.367188 32.273438 32.367188 32.414062 L 32.367188 36.867188 C 32.355469 37.277344 32.457031 37.65625 32.675781 38.007812 C 32.875 38.320312 33.148438 38.554688 33.484375 38.710938 C 34.203125 39.039062 34.917969 39.039062 35.632812 38.710938 C 35.972656 38.554688 36.242188 38.320312 36.445312 38.007812 C 36.664062 37.65625 36.765625 37.277344 36.75 36.867188 L 36.75 32.414062 C 36.75 32.273438 36.796875 32.152344 36.898438 32.050781 C 36.992188 31.945312 37.113281 31.894531 37.253906 31.898438 C 37.398438 31.898438 37.519531 31.945312 37.621094 32.046875 C 37.71875 32.148438 37.769531 32.269531 37.769531 32.414062 L 37.769531 36.832031 C 37.789062 37.445312 37.632812 38.007812 37.300781 38.519531 C 36.996094 38.976562 36.589844 39.320312 36.089844 39.546875 C 35.605469 39.769531 35.09375 39.882812 34.558594 39.882812 C 34.019531 39.882812 33.507812 39.769531 33.023438 39.546875 Z M 33.027344 39.546875 " fill-opacity="1" fill-rule="nonzero"/><path fill="#9a9a9a" d="M 34.5625 40.035156 C 34.003906 40.035156 33.472656 39.917969 32.96875 39.6875 C 32.441406 39.449219 32.019531 39.089844 31.695312 38.613281 C 31.34375 38.074219 31.179688 37.484375 31.199219 36.839844 L 31.199219 32.417969 C 31.195312 32.121094 31.328125 31.914062 31.601562 31.796875 C 31.878906 31.683594 32.117188 31.730469 32.328125 31.945312 C 32.460938 32.074219 32.527344 32.230469 32.523438 32.417969 L 32.523438 36.867188 C 32.511719 37.25 32.605469 37.601562 32.808594 37.925781 C 32.992188 38.214844 33.242188 38.429688 33.554688 38.574219 C 34.226562 38.882812 34.902344 38.882812 35.574219 38.574219 C 35.886719 38.429688 36.136719 38.214844 36.320312 37.925781 C 36.523438 37.601562 36.617188 37.246094 36.605469 36.867188 L 36.605469 32.417969 C 36.601562 32.117188 36.734375 31.914062 37.007812 31.796875 C 37.285156 31.683594 37.523438 31.730469 37.734375 31.941406 C 37.867188 32.074219 37.933594 32.230469 37.929688 32.417969 L 37.929688 36.835938 C 37.949219 37.480469 37.78125 38.070312 37.433594 38.609375 C 37.109375 39.085938 36.6875 39.445312 36.160156 39.683594 C 35.652344 39.917969 35.121094 40.035156 34.5625 40.035156 Z M 31.851562 32.054688 C 31.753906 32.050781 31.671875 32.085938 31.605469 32.160156 C 31.535156 32.230469 31.5 32.316406 31.503906 32.417969 L 31.503906 36.835938 C 31.484375 37.417969 31.632812 37.949219 31.945312 38.4375 C 32.234375 38.867188 32.617188 39.191406 33.089844 39.40625 C 33.558594 39.621094 34.046875 39.726562 34.5625 39.726562 C 35.074219 39.726562 35.5625 39.621094 36.03125 39.40625 C 36.503906 39.191406 36.886719 38.867188 37.175781 38.433594 C 37.488281 37.949219 37.636719 37.417969 37.617188 36.835938 L 37.617188 32.417969 C 37.621094 32.316406 37.585938 32.230469 37.511719 32.160156 C 37.445312 32.089844 37.359375 32.054688 37.261719 32.054688 C 37.160156 32.054688 37.078125 32.089844 37.007812 32.160156 C 36.9375 32.234375 36.90625 32.320312 36.90625 32.417969 L 36.90625 36.871094 C 36.921875 37.3125 36.808594 37.722656 36.574219 38.097656 C 36.355469 38.433594 36.066406 38.6875 35.699219 38.855469 C 34.941406 39.207031 34.179688 39.207031 33.421875 38.855469 C 33.054688 38.6875 32.765625 38.433594 32.546875 38.097656 C 32.3125 37.722656 32.199219 37.3125 32.210938 36.871094 L 32.210938 32.417969 C 32.214844 32.320312 32.179688 32.234375 32.105469 32.164062 C 32.039062 32.089844 31.953125 32.054688 31.851562 32.054688 Z M 31.851562 32.054688 " fill-opacity="1" fill-rule="nonzero"/><path fill="#9a9a9a" d="M 40.035156 39.679688 C 39.933594 39.582031 39.886719 39.464844 39.886719 39.324219 L 39.886719 32.417969 C 39.886719 32.273438 39.933594 32.152344 40.035156 32.050781 C 40.128906 31.949219 40.25 31.898438 40.390625 31.898438 C 40.535156 31.898438 40.65625 31.949219 40.753906 32.050781 C 40.855469 32.152344 40.90625 32.273438 40.90625 32.414062 L 40.90625 39.320312 C 40.910156 39.464844 40.859375 39.582031 40.753906 39.679688 C 40.652344 39.777344 40.53125 39.824219 40.390625 39.824219 C 40.25 39.828125 40.132812 39.777344 40.035156 39.679688 Z M 40.035156 39.679688 " fill-opacity="1" fill-rule="nonzero"/><path fill="#9a9a9a" d="M 40.390625 39.980469 C 40.210938 39.984375 40.054688 39.921875 39.925781 39.789062 C 39.796875 39.660156 39.734375 39.507812 39.734375 39.324219 L 39.734375 32.417969 C 39.734375 32.234375 39.796875 32.074219 39.925781 31.945312 C 40.054688 31.816406 40.210938 31.75 40.394531 31.75 C 40.578125 31.75 40.734375 31.816406 40.867188 31.945312 C 41 32.074219 41.0625 32.234375 41.0625 32.417969 L 41.0625 39.324219 C 41.0625 39.511719 41 39.667969 40.863281 39.792969 C 40.730469 39.921875 40.574219 39.984375 40.390625 39.980469 Z M 40.140625 39.574219 C 40.210938 39.640625 40.296875 39.675781 40.394531 39.675781 C 40.492188 39.675781 40.578125 39.640625 40.648438 39.574219 C 40.722656 39.507812 40.757812 39.421875 40.753906 39.324219 L 40.753906 32.417969 C 40.757812 32.320312 40.722656 32.234375 40.648438 32.164062 C 40.535156 32.050781 40.40625 32.023438 40.257812 32.085938 C 40.109375 32.148438 40.039062 32.257812 40.042969 32.417969 L 40.042969 39.324219 C 40.039062 39.421875 40.074219 39.503906 40.140625 39.574219 Z M 40.140625 39.574219 " fill-opacity="1" fill-rule="nonzero"/><path fill="#9a9a9a" d="M 52.152344 29.035156 L 22.191406 29.035156 C 21.980469 29.035156 21.800781 28.960938 21.648438 28.808594 C 21.5 28.660156 21.425781 28.476562 21.425781 28.265625 C 21.425781 28.054688 21.5 27.875 21.648438 27.722656 C 21.800781 27.574219 21.980469 27.5 22.191406 27.5 L 52.152344 27.5 C 52.363281 27.5 52.542969 27.574219 52.695312 27.722656 C 52.84375 27.875 52.917969 28.054688 52.917969 28.265625 C 52.917969 28.476562 52.84375 28.660156 52.695312 28.808594 C 52.542969 28.960938 52.363281 29.035156 52.152344 29.035156 Z M 52.152344 29.035156 " fill-opacity="1" fill-rule="nonzero"/><path fill="#9a9a9a" d="M 51.511719 57.558594 L 22.839844 57.558594 C 22.628906 57.558594 22.445312 57.484375 22.296875 57.332031 C 22.148438 57.183594 22.070312 57.003906 22.070312 56.789062 C 22.070312 56.578125 22.148438 56.398438 22.296875 56.25 C 22.445312 56.097656 22.628906 56.023438 22.839844 56.023438 L 51.511719 56.023438 C 51.722656 56.023438 51.902344 56.097656 52.054688 56.25 C 52.203125 56.398438 52.277344 56.578125 52.277344 56.789062 C 52.277344 57.003906 52.203125 57.183594 52.054688 57.332031 C 51.902344 57.484375 51.722656 57.558594 51.511719 57.558594 Z M 51.511719 57.558594 " fill-opacity="1" fill-rule="nonzero"/><path fill="#9a9a9a" d="M 46.804688 53.714844 L 27.542969 53.714844 C 27.332031 53.714844 27.148438 53.640625 27 53.492188 C 26.851562 53.339844 26.777344 53.160156 26.777344 52.949219 C 26.777344 52.734375 26.851562 52.554688 27 52.40625 C 27.148438 52.253906 27.332031 52.179688 27.542969 52.179688 L 46.804688 52.179688 C 47.015625 52.179688 47.195312 52.253906 47.34375 52.40625 C 47.496094 52.554688 47.570312 52.734375 47.570312 52.949219 C 47.570312 53.160156 47.496094 53.339844 47.34375 53.492188 C 47.195312 53.640625 47.015625 53.714844 46.804688 53.714844 Z M 46.804688 53.714844 " fill-opacity="1" fill-rule="nonzero"/><path fill="#9a9a9a" d="M 42.722656 50.324219 L 31.621094 50.324219 C 31.335938 50.324219 31.066406 50.269531 30.800781 50.160156 C 30.539062 50.054688 30.308594 49.898438 30.109375 49.699219 C 29.90625 49.496094 29.753906 49.265625 29.644531 49.003906 C 29.535156 48.742188 29.480469 48.46875 29.480469 48.183594 L 29.480469 44.578125 C 29.480469 44.292969 29.535156 44.019531 29.644531 43.757812 C 29.753906 43.496094 29.90625 43.265625 30.109375 43.066406 C 30.308594 42.863281 30.539062 42.710938 30.800781 42.601562 C 31.066406 42.492188 31.335938 42.4375 31.621094 42.4375 L 42.722656 42.4375 C 43.007812 42.4375 43.28125 42.492188 43.542969 42.601562 C 43.804688 42.710938 44.035156 42.863281 44.238281 43.066406 C 44.4375 43.265625 44.59375 43.496094 44.703125 43.757812 C 44.8125 44.019531 44.863281 44.292969 44.867188 44.578125 L 44.867188 48.183594 C 44.863281 48.46875 44.8125 48.742188 44.703125 49.003906 C 44.59375 49.265625 44.4375 49.496094 44.238281 49.699219 C 44.035156 49.898438 43.804688 50.054688 43.542969 50.160156 C 43.28125 50.269531 43.007812 50.324219 42.722656 50.324219 Z M 31.621094 43.972656 C 31.453125 43.972656 31.3125 44.03125 31.191406 44.148438 C 31.074219 44.269531 31.015625 44.410156 31.015625 44.578125 L 31.015625 48.183594 C 31.015625 48.351562 31.074219 48.496094 31.191406 48.613281 C 31.3125 48.730469 31.453125 48.789062 31.621094 48.789062 L 42.722656 48.789062 C 42.890625 48.789062 43.035156 48.730469 43.152344 48.613281 C 43.269531 48.496094 43.332031 48.351562 43.332031 48.183594 L 43.332031 44.578125 C 43.332031 44.410156 43.269531 44.269531 43.152344 44.148438 C 43.035156 44.03125 42.890625 43.972656 42.722656 43.972656 Z M 31.621094 43.972656 " fill-opacity="1" fill-rule="nonzero"/><path fill="#9a9a9a" d="M 64.964844 21.78125 L 52.152344 21.78125 C 51.9375 21.78125 51.757812 21.703125 51.609375 21.554688 C 51.457031 21.40625 51.382812 21.222656 51.382812 21.011719 C 51.382812 20.800781 51.457031 20.621094 51.609375 20.46875 C 51.757812 20.320312 51.9375 20.246094 52.152344 20.246094 L 64.964844 20.246094 C 65.179688 20.246094 65.359375 20.320312 65.507812 20.46875 C 65.660156 20.621094 65.734375 20.800781 65.734375 21.011719 C 65.734375 21.222656 65.660156 21.40625 65.507812 21.554688 C 65.359375 21.703125 65.179688 21.78125 64.964844 21.78125 Z M 64.964844 21.78125 " fill-opacity="1" fill-rule="nonzero"/><g clip-path="url(#a22e116238)"><path fill="#9a9a9a" d="M 74.328125 26.460938 L 64.964844 26.460938 C 64.753906 26.460938 64.574219 26.386719 64.421875 26.238281 C 64.273438 26.085938 64.199219 25.90625 64.199219 25.695312 L 64.199219 16.332031 C 64.199219 16.121094 64.273438 15.941406 64.421875 15.789062 C 64.574219 15.640625 64.753906 15.566406 64.964844 15.566406 L 74.328125 15.566406 C 74.539062 15.566406 74.71875 15.640625 74.871094 15.789062 C 75.019531 15.941406 75.09375 16.121094 75.09375 16.332031 L 75.09375 25.695312 C 75.09375 25.90625 75.019531 26.085938 74.871094 26.238281 C 74.71875 26.386719 74.539062 26.460938 74.328125 26.460938 Z M 65.734375 24.925781 L 73.558594 24.925781 L 73.558594 17.101562 L 65.734375 17.101562 Z M 65.734375 24.925781 " fill-opacity="1" fill-rule="nonzero"/></g><path fill="#9a9a9a" d="M 71.601562 20.414062 L 67.6875 20.414062 C 67.476562 20.414062 67.296875 20.335938 67.144531 20.1875 C 66.996094 20.039062 66.921875 19.855469 66.921875 19.644531 C 66.921875 19.433594 66.996094 19.253906 67.144531 19.101562 C 67.296875 18.953125 67.476562 18.878906 67.6875 18.878906 L 71.601562 18.878906 C 71.8125 18.878906 71.996094 18.953125 72.144531 19.101562 C 72.292969 19.253906 72.371094 19.433594 72.371094 19.644531 C 72.371094 19.855469 72.292969 20.039062 72.144531 20.1875 C 71.996094 20.335938 71.8125 20.414062 71.601562 20.414062 Z M 71.601562 20.414062 " fill-opacity="1" fill-rule="nonzero"/><path fill="#9a9a9a" d="M 71.601562 23.148438 L 67.6875 23.148438 C 67.476562 23.148438 67.296875 23.074219 67.144531 22.921875 C 66.996094 22.773438 66.921875 22.59375 66.921875 22.378906 C 66.921875 22.167969 66.996094 21.988281 67.144531 21.835938 C 67.296875 21.6875 67.476562 21.613281 67.6875 21.613281 L 71.601562 21.613281 C 71.8125 21.613281 71.996094 21.6875 72.144531 21.835938 C 72.292969 21.988281 72.371094 22.167969 72.371094 22.378906 C 72.371094 22.59375 72.292969 22.773438 72.144531 22.921875 C 71.996094 23.074219 71.8125 23.148438 71.601562 23.148438 Z M 71.601562 23.148438 " fill-opacity="1" fill-rule="nonzero"/><path fill="#9a9a9a" d="M 22.839844 36.453125 L 10.023438 36.453125 C 9.8125 36.453125 9.632812 36.378906 9.480469 36.230469 C 9.332031 36.082031 9.257812 35.898438 9.257812 35.6875 C 9.257812 35.476562 9.332031 35.292969 9.480469 35.144531 C 9.632812 34.996094 9.8125 34.921875 10.023438 34.921875 L 22.839844 34.921875 C 23.050781 34.921875 23.230469 34.996094 23.382812 35.144531 C 23.53125 35.292969 23.605469 35.476562 23.605469 35.6875 C 23.605469 35.898438 23.53125 36.082031 23.382812 36.230469 C 23.230469 36.378906 23.050781 36.453125 22.839844 36.453125 Z M 22.839844 36.453125 " fill-opacity="1" fill-rule="nonzero"/><path fill="#9a9a9a" d="M 10.023438 41.136719 L 0.664062 41.136719 C 0.449219 41.136719 0.269531 41.0625 0.121094 40.914062 C -0.03125 40.761719 -0.105469 40.582031 -0.105469 40.371094 L -0.105469 31.007812 C -0.105469 30.796875 -0.03125 30.617188 0.121094 30.464844 C 0.269531 30.316406 0.449219 30.242188 0.664062 30.242188 L 10.023438 30.242188 C 10.234375 30.242188 10.417969 30.316406 10.566406 30.464844 C 10.71875 30.617188 10.792969 30.796875 10.792969 31.007812 L 10.792969 40.371094 C 10.792969 40.582031 10.71875 40.761719 10.566406 40.914062 C 10.417969 41.0625 10.234375 41.136719 10.023438 41.136719 Z M 1.429688 39.601562 L 9.257812 39.601562 L 9.257812 31.777344 L 1.429688 31.777344 Z M 1.429688 39.601562 " fill-opacity="1" fill-rule="nonzero"/><path fill="#9a9a9a" d="M 7.59375 35.085938 L 3.097656 35.085938 C 2.886719 35.085938 2.703125 35.011719 2.554688 34.863281 C 2.40625 34.710938 2.328125 34.53125 2.328125 34.320312 C 2.328125 34.109375 2.40625 33.925781 2.554688 33.777344 C 2.703125 33.625 2.886719 33.550781 3.097656 33.550781 L 7.59375 33.550781 C 7.804688 33.550781 7.984375 33.625 8.136719 33.777344 C 8.285156 33.925781 8.359375 34.109375 8.359375 34.320312 C 8.359375 34.53125 8.285156 34.710938 8.136719 34.863281 C 7.984375 35.011719 7.804688 35.085938 7.59375 35.085938 Z M 7.59375 35.085938 " fill-opacity="1" fill-rule="nonzero"/><path fill="#9a9a9a" d="M 7.59375 37.824219 L 3.097656 37.824219 C 2.886719 37.824219 2.703125 37.75 2.554688 37.597656 C 2.40625 37.449219 2.328125 37.269531 2.328125 37.054688 C 2.328125 36.84375 2.40625 36.664062 2.554688 36.511719 C 2.703125 36.363281 2.886719 36.289062 3.097656 36.289062 L 7.59375 36.289062 C 7.804688 36.289062 7.984375 36.363281 8.136719 36.511719 C 8.285156 36.664062 8.359375 36.84375 8.359375 37.054688 C 8.359375 37.269531 8.285156 37.449219 8.136719 37.597656 C 7.984375 37.75 7.804688 37.824219 7.59375 37.824219 Z M 7.59375 37.824219 " fill-opacity="1" fill-rule="nonzero"/></svg>