<svg xmlns="http://www.w3.org/2000/svg" xmlns:xlink="http://www.w3.org/1999/xlink" width="100" zoomAndPan="magnify" viewBox="0 0 75 74.999997" height="100" preserveAspectRatio="xMidYMid meet" version="1.0"><defs><clipPath id="c4c0383ab0"><path d="M 0 7.5 L 70 7.5 L 70 58 L 0 58 Z M 0 7.5 " clip-rule="nonzero"/></clipPath><clipPath id="609e9c41d8"><path d="M 27 55.28125 L 28.816406 55.28125 L 28.816406 67.476562 L 27 67.476562 Z M 27 55.28125 " clip-rule="nonzero"/></clipPath><clipPath id="f9fd8062d6"><path d="M 40.460938 55.28125 L 42.433594 55.28125 L 42.433594 67.476562 L 40.460938 67.476562 Z M 40.460938 55.28125 " clip-rule="nonzero"/></clipPath><clipPath id="d5969218d2"><path d="M 20.722656 65.546875 L 48.550781 65.546875 L 48.550781 67.476562 L 20.722656 67.476562 Z M 20.722656 65.546875 " clip-rule="nonzero"/></clipPath><clipPath id="e34e9dcfbc"><path d="M 50.132812 24.492188 L 75 24.492188 L 75 67.476562 L 50.132812 67.476562 Z M 50.132812 24.492188 " clip-rule="nonzero"/></clipPath></defs><g clip-path="url(#c4c0383ab0)"><path fill="#9a9a9a" d="M 51.113281 57.246094 L 2.566406 57.246094 C 1.152344 57.246094 0 56.09375 0 54.679688 L 0 10.085938 C 0 8.671875 1.152344 7.519531 2.566406 7.519531 L 66.785156 7.519531 C 68.203125 7.519531 69.351562 8.671875 69.351562 10.085938 L 69.351562 25.527344 C 69.351562 26.015625 68.957031 26.414062 68.46875 26.414062 C 67.980469 26.414062 67.582031 26.015625 67.582031 25.527344 L 67.582031 10.085938 C 67.582031 9.648438 67.226562 9.292969 66.785156 9.292969 L 2.566406 9.292969 C 2.128906 9.292969 1.773438 9.648438 1.773438 10.085938 L 1.773438 54.679688 C 1.773438 55.117188 2.128906 55.472656 2.566406 55.472656 L 51.113281 55.472656 C 51.601562 55.472656 52 55.871094 52 56.359375 C 52 56.847656 51.601562 57.246094 51.113281 57.246094 " fill-opacity="1" fill-rule="nonzero"/></g><path fill="#9a9a9a" d="M 34.589844 50.019531 C 35.570312 50.019531 36.363281 50.8125 36.363281 51.792969 C 36.363281 52.773438 35.570312 53.566406 34.589844 53.566406 C 33.609375 53.566406 32.816406 52.773438 32.816406 51.792969 C 32.816406 50.8125 33.609375 50.019531 34.589844 50.019531 " fill-opacity="1" fill-rule="nonzero"/><g clip-path="url(#609e9c41d8)"><path fill="#9a9a9a" d="M 27.886719 67.476562 C 27.398438 67.476562 27 67.078125 27 66.589844 L 27 56.359375 C 27 55.871094 27.398438 55.472656 27.886719 55.472656 C 28.378906 55.472656 28.773438 55.871094 28.773438 56.359375 L 28.773438 66.589844 C 28.773438 67.078125 28.378906 67.476562 27.886719 67.476562 " fill-opacity="1" fill-rule="nonzero"/></g><g clip-path="url(#f9fd8062d6)"><path fill="#9a9a9a" d="M 41.464844 67.476562 C 40.976562 67.476562 40.578125 67.078125 40.578125 66.589844 L 40.578125 56.359375 C 40.578125 55.871094 40.976562 55.472656 41.464844 55.472656 C 41.953125 55.472656 42.351562 55.871094 42.351562 56.359375 L 42.351562 66.589844 C 42.351562 67.078125 41.953125 67.476562 41.464844 67.476562 " fill-opacity="1" fill-rule="nonzero"/></g><g clip-path="url(#d5969218d2)"><path fill="#9a9a9a" d="M 47.589844 67.476562 L 21.765625 67.476562 C 21.277344 67.476562 20.878906 67.078125 20.878906 66.589844 C 20.878906 66.101562 21.277344 65.703125 21.765625 65.703125 L 47.589844 65.703125 C 48.078125 65.703125 48.472656 66.101562 48.472656 66.589844 C 48.472656 67.078125 48.078125 67.476562 47.589844 67.476562 " fill-opacity="1" fill-rule="nonzero"/></g><path fill="#9a9a9a" d="M 51.113281 48.117188 L 0.886719 48.117188 C 0.394531 48.117188 0 47.722656 0 47.230469 C 0 46.742188 0.394531 46.347656 0.886719 46.347656 L 51.113281 46.347656 C 51.601562 46.347656 52 46.742188 52 47.230469 C 52 47.722656 51.601562 48.117188 51.113281 48.117188 " fill-opacity="1" fill-rule="nonzero"/><path fill="#9a9a9a" d="M 62.589844 59.4375 L 62.640625 59.4375 L 62.640625 61.253906 L 62.589844 61.253906 L 62.589844 59.4375 " fill-opacity="1" fill-rule="nonzero"/><path fill="#9a9a9a" d="M 7.582031 14.511719 C 7.257812 14.511719 6.992188 14.777344 6.992188 15.101562 L 6.992188 20.476562 C 6.992188 20.804688 7.257812 21.066406 7.582031 21.066406 L 25.378906 21.066406 C 25.703125 21.066406 25.96875 20.804688 25.96875 20.476562 L 25.96875 15.101562 C 25.96875 14.777344 25.703125 14.511719 25.378906 14.511719 Z M 25.378906 22.839844 L 7.582031 22.839844 C 6.28125 22.839844 5.222656 21.78125 5.222656 20.476562 L 5.222656 15.101562 C 5.222656 13.800781 6.28125 12.742188 7.582031 12.742188 L 25.378906 12.742188 C 26.679688 12.742188 27.742188 13.800781 27.742188 15.101562 L 27.742188 20.476562 C 27.742188 21.78125 26.679688 22.839844 25.378906 22.839844 " fill-opacity="1" fill-rule="nonzero"/><path fill="#9a9a9a" d="M 7.582031 28.671875 C 7.257812 28.671875 6.992188 28.9375 6.992188 29.261719 L 6.992188 34.636719 C 6.992188 34.964844 7.257812 35.226562 7.582031 35.226562 L 15.003906 35.226562 C 15.328125 35.226562 15.59375 34.964844 15.59375 34.636719 L 15.59375 29.261719 C 15.59375 28.9375 15.328125 28.671875 15.003906 28.671875 Z M 15.003906 37 L 7.582031 37 C 6.28125 37 5.222656 35.941406 5.222656 34.636719 L 5.222656 29.261719 C 5.222656 27.960938 6.28125 26.902344 7.582031 26.902344 L 15.003906 26.902344 C 16.308594 26.902344 17.367188 27.960938 17.367188 29.261719 L 17.367188 34.636719 C 17.367188 35.941406 16.308594 37 15.003906 37 " fill-opacity="1" fill-rule="nonzero"/><path fill="#9a9a9a" d="M 21.734375 28.671875 C 21.410156 28.671875 21.144531 28.9375 21.144531 29.261719 L 21.144531 34.636719 C 21.144531 34.964844 21.410156 35.226562 21.734375 35.226562 L 29.15625 35.226562 C 29.480469 35.226562 29.746094 34.964844 29.746094 34.636719 L 29.746094 29.261719 C 29.746094 28.9375 29.480469 28.671875 29.15625 28.671875 Z M 29.15625 37 L 21.734375 37 C 20.433594 37 19.371094 35.941406 19.371094 34.636719 L 19.371094 29.261719 C 19.371094 27.960938 20.433594 26.902344 21.734375 26.902344 L 29.15625 26.902344 C 30.457031 26.902344 31.519531 27.960938 31.519531 29.261719 L 31.519531 34.636719 C 31.519531 35.941406 30.457031 37 29.15625 37 " fill-opacity="1" fill-rule="nonzero"/><path fill="#9a9a9a" d="M 35.886719 28.671875 C 35.5625 28.671875 35.296875 28.9375 35.296875 29.261719 L 35.296875 34.636719 C 35.296875 34.964844 35.5625 35.226562 35.886719 35.226562 L 43.308594 35.226562 C 43.632812 35.226562 43.898438 34.964844 43.898438 34.636719 L 43.898438 29.261719 C 43.898438 28.9375 43.632812 28.671875 43.308594 28.671875 Z M 43.308594 37 L 35.886719 37 C 34.585938 37 33.523438 35.941406 33.523438 34.636719 L 33.523438 29.261719 C 33.523438 27.960938 34.585938 26.902344 35.886719 26.902344 L 43.308594 26.902344 C 44.609375 26.902344 45.671875 27.960938 45.671875 29.261719 L 45.671875 34.636719 C 45.671875 35.941406 44.609375 37 43.308594 37 " fill-opacity="1" fill-rule="nonzero"/><path fill="#9a9a9a" d="M 44.785156 15.082031 L 30.671875 15.082031 C 30.183594 15.082031 29.789062 14.6875 29.789062 14.195312 C 29.789062 13.707031 30.183594 13.3125 30.671875 13.3125 L 44.785156 13.3125 C 45.273438 13.3125 45.671875 13.707031 45.671875 14.195312 C 45.671875 14.6875 45.273438 15.082031 44.785156 15.082031 " fill-opacity="1" fill-rule="nonzero"/><path fill="#9a9a9a" d="M 44.785156 18.675781 L 30.671875 18.675781 C 30.183594 18.675781 29.789062 18.277344 29.789062 17.789062 C 29.789062 17.300781 30.183594 16.902344 30.671875 16.902344 L 44.785156 16.902344 C 45.273438 16.902344 45.671875 17.300781 45.671875 17.789062 C 45.671875 18.277344 45.273438 18.675781 44.785156 18.675781 " fill-opacity="1" fill-rule="nonzero"/><path fill="#9a9a9a" d="M 44.785156 22.269531 L 30.671875 22.269531 C 30.183594 22.269531 29.789062 21.871094 29.789062 21.382812 C 29.789062 20.894531 30.183594 20.496094 30.671875 20.496094 L 44.785156 20.496094 C 45.273438 20.496094 45.671875 20.894531 45.671875 21.382812 C 45.671875 21.871094 45.273438 22.269531 44.785156 22.269531 " fill-opacity="1" fill-rule="nonzero"/><path fill="#9a9a9a" d="M 74.113281 32.898438 L 51.113281 32.898438 C 50.625 32.898438 50.226562 32.503906 50.226562 32.011719 C 50.226562 31.523438 50.625 31.128906 51.113281 31.128906 L 74.113281 31.128906 C 74.601562 31.128906 75 31.523438 75 32.011719 C 75 32.503906 74.601562 32.898438 74.113281 32.898438 " fill-opacity="1" fill-rule="nonzero"/><path fill="#9a9a9a" d="M 74.113281 60.988281 L 51.113281 60.988281 C 50.625 60.988281 50.226562 60.59375 50.226562 60.105469 C 50.226562 59.613281 50.625 59.21875 51.113281 59.21875 L 74.113281 59.21875 C 74.601562 59.21875 75 59.613281 75 60.105469 C 75 60.59375 74.601562 60.988281 74.113281 60.988281 " fill-opacity="1" fill-rule="nonzero"/><path fill="#9a9a9a" d="M 59.929688 37.921875 C 59.601562 37.921875 59.335938 38.1875 59.335938 38.511719 L 59.335938 42.242188 C 59.335938 42.566406 59.601562 42.832031 59.929688 42.832031 L 65.300781 42.832031 C 65.625 42.832031 65.890625 42.566406 65.890625 42.242188 L 65.890625 38.511719 C 65.890625 38.1875 65.625 37.921875 65.300781 37.921875 Z M 65.300781 44.601562 L 59.929688 44.601562 C 58.625 44.601562 57.566406 43.542969 57.566406 42.242188 L 57.566406 38.511719 C 57.566406 37.210938 58.625 36.148438 59.929688 36.148438 L 65.300781 36.148438 C 66.601562 36.148438 67.664062 37.210938 67.664062 38.511719 L 67.664062 42.242188 C 67.664062 43.542969 66.601562 44.601562 65.300781 44.601562 " fill-opacity="1" fill-rule="nonzero"/><path fill="#9a9a9a" d="M 70.292969 55.96875 L 54.933594 55.96875 C 54.445312 55.96875 54.050781 55.570312 54.050781 55.082031 C 54.050781 54.59375 54.445312 54.195312 54.933594 54.195312 L 70.292969 54.195312 C 70.78125 54.195312 71.179688 54.59375 71.179688 55.082031 C 71.179688 55.570312 70.78125 55.96875 70.292969 55.96875 " fill-opacity="1" fill-rule="nonzero"/><path fill="#9a9a9a" d="M 70.292969 52.625 L 54.933594 52.625 C 54.445312 52.625 54.050781 52.230469 54.050781 51.742188 C 54.050781 51.25 54.445312 50.855469 54.933594 50.855469 L 70.292969 50.855469 C 70.78125 50.855469 71.179688 51.25 71.179688 51.742188 C 71.179688 52.230469 70.78125 52.625 70.292969 52.625 " fill-opacity="1" fill-rule="nonzero"/><path fill="#9a9a9a" d="M 70.292969 49.285156 L 54.933594 49.285156 C 54.445312 49.285156 54.050781 48.886719 54.050781 48.398438 C 54.050781 47.910156 54.445312 47.515625 54.933594 47.515625 L 70.292969 47.515625 C 70.78125 47.515625 71.179688 47.910156 71.179688 48.398438 C 71.179688 48.886719 70.78125 49.285156 70.292969 49.285156 " fill-opacity="1" fill-rule="nonzero"/><g clip-path="url(#e34e9dcfbc)"><path fill="#9a9a9a" d="M 52.847656 26.414062 C 52.382812 26.414062 52 26.792969 52 27.261719 L 52 64.855469 C 52 65.324219 52.382812 65.703125 52.847656 65.703125 L 72.378906 65.703125 C 72.605469 65.703125 72.820312 65.617188 72.980469 65.457031 C 73.140625 65.296875 73.226562 65.082031 73.226562 64.855469 L 73.226562 27.261719 C 73.226562 26.792969 72.847656 26.414062 72.378906 26.414062 Z M 72.378906 67.476562 L 52.847656 67.476562 C 51.402344 67.476562 50.226562 66.300781 50.226562 64.855469 L 50.226562 27.261719 C 50.226562 25.816406 51.402344 24.640625 52.847656 24.640625 L 72.378906 24.640625 C 73.824219 24.640625 75 25.816406 75 27.261719 L 75 64.855469 C 75 65.554688 74.726562 66.214844 74.230469 66.707031 C 73.738281 67.203125 73.078125 67.476562 72.378906 67.476562 " fill-opacity="1" fill-rule="nonzero"/></g></svg>