<svg xmlns="http://www.w3.org/2000/svg" xmlns:xlink="http://www.w3.org/1999/xlink" width="100" zoomAndPan="magnify" viewBox="0 0 75 74.999997" height="100" preserveAspectRatio="xMidYMid meet" version="1.0"><path fill="#9a9a9a" d="M 16.761719 13.105469 L 10.121094 13.105469 L 10.121094 19.742188 L 16.761719 19.742188 Z M 16.761719 13.105469 " fill-opacity="1" fill-rule="nonzero"/><path fill="#9a9a9a" d="M 41.664062 13.105469 L 35.023438 13.105469 L 35.023438 19.742188 L 41.664062 19.742188 Z M 41.664062 13.105469 " fill-opacity="1" fill-rule="nonzero"/><path fill="#9a9a9a" d="M 16.761719 38.003906 L 10.121094 38.003906 L 10.121094 44.644531 L 16.761719 44.644531 Z M 16.761719 38.003906 " fill-opacity="1" fill-rule="nonzero"/><path fill="#9a9a9a" d="M 41.664062 38.003906 L 35.023438 38.003906 L 35.023438 44.644531 L 41.664062 44.644531 Z M 41.664062 38.003906 " fill-opacity="1" fill-rule="nonzero"/><path stroke-linecap="round" transform="matrix(1.875, 0, 0, 1.875, 7.500001, -3.750001)" fill="none" stroke-linejoin="round" d="M 16.450001 10.758335 L 3.170833 10.758335 L 3.170833 24.039586 L 16.450001 24.039586 Z M 16.450001 10.758335 " stroke="#9a9a9a" stroke-width="1" stroke-opacity="1" stroke-miterlimit="4"/><path stroke-linecap="round" transform="matrix(1.875, 0, 0, 1.875, 7.500001, -3.750001)" fill="none" stroke-linejoin="round" d="M 7.020833 30.318753 L 1 30.318753 L 1 36.339587 L 7.020833 36.339587 Z M 7.020833 30.318753 " stroke="#9a9a9a" stroke-width="1" stroke-opacity="1" stroke-miterlimit="4"/><path stroke-linecap="round" transform="matrix(1.875, 0, 0, 1.875, 7.500001, -3.750001)" fill="none" stroke-linejoin="round" d="M 13.039584 30.318753 L 7.020833 30.318753 L 7.020833 36.339587 L 13.039584 36.339587 Z M 13.039584 30.318753 " stroke="#9a9a9a" stroke-width="1" stroke-opacity="1" stroke-miterlimit="4"/><path stroke-linecap="round" transform="matrix(1.875, 0, 0, 1.875, 7.500001, -3.750001)" fill="none" stroke-linejoin="round" d="M 19.060418 30.318753 L 13.039584 30.318753 L 13.039584 36.339587 L 19.060418 36.339587 Z M 19.060418 30.318753 " stroke="#9a9a9a" stroke-width="1" stroke-opacity="1" stroke-miterlimit="4"/><path stroke-linecap="round" transform="matrix(1.875, 0, 0, 1.875, 7.500001, -3.750001)" fill="none" stroke-linejoin="round" d="M 25.081252 30.318753 L 19.060418 30.318753 L 19.060418 36.339587 L 25.081252 36.339587 Z M 25.081252 30.318753 " stroke="#9a9a9a" stroke-width="1" stroke-opacity="1" stroke-miterlimit="4"/><path stroke-linecap="round" transform="matrix(1.875, 0, 0, 1.875, 7.500001, -3.750001)" fill="none" stroke-linejoin="round" d="M 31.102085 30.318753 L 25.081252 30.318753 L 25.081252 36.339587 L 31.102085 36.339587 Z M 31.102085 30.318753 " stroke="#9a9a9a" stroke-width="1" stroke-opacity="1" stroke-miterlimit="4"/><path stroke-linecap="round" transform="matrix(1.875, 0, 0, 1.875, 7.500001, -3.750001)" fill-opacity="1" fill="#161616" fill-rule="nonzero" stroke-linejoin="round" d="M 26.568752 7.660418 C 27.625002 7.660418 28.483335 8.518751 28.483335 9.575001 L 28.483335 13.025001 L 24.654168 13.025001 L 24.654168 9.575001 C 24.654168 8.518751 25.512502 7.660418 26.568752 7.660418 Z M 26.568752 7.660418 " stroke="#9a9a9a" stroke-width="1" stroke-opacity="1" stroke-miterlimit="4"/><path stroke-linecap="round" transform="matrix(1.875, 0, 0, 1.875, 7.500001, -3.750001)" fill="none" stroke-linejoin="round" d="M 30.614585 13.025001 L 22.487501 13.025001 L 22.487501 16.070835 L 30.614585 16.070835 Z M 30.614585 13.025001 " stroke="#9a9a9a" stroke-width="1" stroke-opacity="1" stroke-miterlimit="4"/><path stroke-linecap="round" transform="matrix(1.875, 0, 0, 1.875, 7.500001, -3.750001)" fill="none" stroke-linejoin="round" d="M 25.029168 23.420836 L 25.029168 16.070835 L 28.072918 16.070835 L 28.072918 23.420836 L 26.550002 25.810419 Z M 25.029168 23.420836 " stroke="#9a9a9a" stroke-width="1" stroke-opacity="1" stroke-miterlimit="4"/><path stroke-linecap="round" transform="matrix(1.875, 0, 0, 1.875, 7.500001, -3.750001)" fill="none" stroke-linejoin="round" d="M 7.841667 19.756252 L 9.810417 15.041668 " stroke="#9a9a9a" stroke-width="1" stroke-opacity="1" stroke-miterlimit="4"/><path stroke-linecap="round" transform="matrix(1.875, 0, 0, 1.875, 7.500001, -3.750001)" fill="none" stroke-linejoin="round" d="M 11.777084 19.756252 L 9.810417 15.041668 " stroke="#9a9a9a" stroke-width="1" stroke-opacity="1" stroke-miterlimit="4"/><path stroke-linecap="round" transform="matrix(1.875, 0, 0, 1.875, 7.500001, -3.750001)" fill="none" stroke-linejoin="round" d="M 8.49375 18.193752 L 11.125 18.193752 " stroke="#9a9a9a" stroke-width="1" stroke-opacity="1" stroke-miterlimit="4"/></svg>