<svg xmlns="http://www.w3.org/2000/svg" xmlns:xlink="http://www.w3.org/1999/xlink" width="100" zoomAndPan="magnify" viewBox="0 0 75 74.999997" height="100" preserveAspectRatio="xMidYMid meet" version="1.0"><defs><clipPath id="f4ec8eb36f"><path d="M 6.1875 6.1875 L 69 6.1875 L 69 69 L 6.1875 69 Z M 6.1875 6.1875 " clip-rule="nonzero"/></clipPath></defs><path fill="#9a9a9a" d="M 17.597656 32.84375 C 18.738281 33.980469 20.484375 32.257812 19.335938 31.105469 L 15.292969 27.0625 L 19.335938 23.019531 C 19.816406 22.539062 19.816406 21.761719 19.335938 21.28125 C 18.855469 20.804688 18.078125 20.804688 17.597656 21.28125 L 12.6875 26.195312 C 12.207031 26.671875 12.207031 27.449219 12.6875 27.929688 Z M 17.597656 32.84375 " fill-opacity="1" fill-rule="nonzero"/><path fill="#9a9a9a" d="M 31.613281 32.84375 L 36.527344 27.929688 C 37.007812 27.453125 37.007812 26.671875 36.527344 26.195312 L 31.613281 21.28125 C 31.136719 20.804688 30.359375 20.804688 29.878906 21.28125 C 29.398438 21.761719 29.398438 22.539062 29.878906 23.019531 L 33.921875 27.0625 L 29.878906 31.105469 C 28.726562 32.257812 30.476562 33.976562 31.613281 32.84375 Z M 31.613281 32.84375 " fill-opacity="1" fill-rule="nonzero"/><path fill="#9a9a9a" d="M 23.378906 33.203125 C 23.929688 33.203125 24.429688 32.828125 24.570312 32.273438 L 27.027344 22.449219 C 27.191406 21.789062 26.789062 21.125 26.132812 20.960938 C 25.472656 20.796875 24.808594 21.195312 24.644531 21.851562 L 22.1875 31.675781 C 21.992188 32.449219 22.578125 33.203125 23.378906 33.203125 Z M 23.378906 33.203125 " fill-opacity="1" fill-rule="nonzero"/><path fill="#9a9a9a" d="M 36.886719 40.570312 C 36.207031 40.570312 35.65625 41.121094 35.65625 41.796875 C 35.65625 42.476562 36.207031 43.027344 36.886719 43.027344 L 61.445312 43.027344 C 62.121094 43.027344 62.671875 42.476562 62.671875 41.796875 C 62.671875 41.121094 62.121094 40.570312 61.445312 40.570312 L 60.21875 40.570312 L 60.21875 30.746094 C 60.21875 30.066406 59.667969 29.519531 58.988281 29.519531 C 58.3125 29.519531 57.761719 30.066406 57.761719 30.746094 L 57.761719 40.570312 L 55.304688 40.570312 L 55.304688 28.289062 C 55.304688 27.613281 54.753906 27.0625 54.078125 27.0625 C 53.398438 27.0625 52.847656 27.613281 52.847656 28.289062 L 52.847656 40.570312 L 50.394531 40.570312 L 50.394531 35.65625 C 50.394531 34.980469 49.84375 34.429688 49.164062 34.429688 C 48.488281 34.429688 47.9375 34.980469 47.9375 35.65625 L 47.9375 40.570312 L 45.480469 40.570312 L 45.480469 33.203125 C 45.480469 32.523438 44.933594 31.972656 44.253906 31.972656 C 43.574219 31.972656 43.027344 32.523438 43.027344 33.203125 L 43.027344 40.570312 L 40.570312 40.570312 L 40.570312 36.886719 C 40.570312 36.207031 40.019531 35.65625 39.34375 35.65625 C 38.664062 35.65625 38.113281 36.207031 38.113281 36.886719 L 38.113281 40.570312 Z M 36.886719 40.570312 " fill-opacity="1" fill-rule="nonzero"/><path fill="#9a9a9a" d="M 39.34375 14.78125 L 61.445312 14.78125 C 62.121094 14.78125 62.671875 14.234375 62.671875 13.554688 C 62.671875 12.878906 62.121094 12.328125 61.445312 12.328125 L 39.34375 12.328125 C 38.664062 12.328125 38.113281 12.878906 38.113281 13.554688 C 38.113281 14.234375 38.664062 14.78125 39.34375 14.78125 Z M 39.34375 14.78125 " fill-opacity="1" fill-rule="nonzero"/><path fill="#9a9a9a" d="M 39.34375 19.695312 L 54.078125 19.695312 C 54.753906 19.695312 55.304688 19.144531 55.304688 18.46875 C 55.304688 17.789062 54.753906 17.238281 54.078125 17.238281 L 39.34375 17.238281 C 38.664062 17.238281 38.113281 17.789062 38.113281 18.46875 C 38.113281 19.144531 38.664062 19.695312 39.34375 19.695312 Z M 39.34375 19.695312 " fill-opacity="1" fill-rule="nonzero"/><path fill="#9a9a9a" d="M 62.671875 52.847656 C 62.671875 53.011719 62.640625 53.167969 62.578125 53.320312 C 62.515625 53.46875 62.429688 53.601562 62.3125 53.71875 C 62.199219 53.832031 62.066406 53.921875 61.914062 53.984375 C 61.765625 54.046875 61.609375 54.078125 61.445312 54.078125 C 61.28125 54.078125 61.125 54.046875 60.976562 53.984375 C 60.824219 53.921875 60.691406 53.832031 60.578125 53.71875 C 60.460938 53.601562 60.371094 53.46875 60.308594 53.320312 C 60.25 53.167969 60.21875 53.011719 60.21875 52.847656 C 60.21875 52.6875 60.25 52.53125 60.308594 52.378906 C 60.371094 52.230469 60.460938 52.097656 60.578125 51.980469 C 60.691406 51.867188 60.824219 51.777344 60.976562 51.714844 C 61.125 51.652344 61.28125 51.621094 61.445312 51.621094 C 61.609375 51.621094 61.765625 51.652344 61.914062 51.714844 C 62.066406 51.777344 62.199219 51.867188 62.3125 51.980469 C 62.429688 52.097656 62.515625 52.230469 62.578125 52.378906 C 62.640625 52.53125 62.671875 52.6875 62.671875 52.847656 Z M 62.671875 52.847656 " fill-opacity="1" fill-rule="nonzero"/><path fill="#9a9a9a" d="M 56.53125 51.621094 L 55.304688 51.621094 C 54.628906 51.621094 54.078125 52.171875 54.078125 52.847656 C 54.078125 53.527344 54.628906 54.078125 55.304688 54.078125 L 56.53125 54.078125 C 57.210938 54.078125 57.761719 53.527344 57.761719 52.847656 C 57.761719 52.171875 57.210938 51.621094 56.53125 51.621094 Z M 56.53125 51.621094 " fill-opacity="1" fill-rule="nonzero"/><path fill="#9a9a9a" d="M 50.394531 51.621094 L 49.164062 51.621094 C 48.488281 51.621094 47.9375 52.171875 47.9375 52.847656 C 47.9375 53.527344 48.488281 54.078125 49.164062 54.078125 L 50.394531 54.078125 C 51.070312 54.078125 51.621094 53.527344 51.621094 52.847656 C 51.621094 52.171875 51.070312 51.621094 50.394531 51.621094 Z M 50.394531 51.621094 " fill-opacity="1" fill-rule="nonzero"/><g clip-path="url(#f4ec8eb36f)"><path fill="#9a9a9a" d="M 62.070312 6.1875 L 12.929688 6.1875 C 9.210938 6.1875 6.1875 9.210938 6.1875 12.929688 L 6.1875 52.246094 C 6.1875 55.964844 9.210938 58.988281 12.929688 58.988281 L 31.359375 58.988281 L 31.359375 61.445312 L 30.132812 61.445312 C 26.746094 61.445312 23.992188 64.199219 23.992188 67.585938 C 23.992188 68.261719 24.542969 68.8125 25.21875 68.8125 L 49.78125 68.8125 C 50.457031 68.8125 51.007812 68.261719 51.007812 67.585938 C 51.007812 64.199219 48.253906 61.445312 44.867188 61.445312 L 43.640625 61.445312 L 43.640625 58.988281 L 62.070312 58.988281 C 65.789062 58.988281 68.8125 55.964844 68.8125 52.246094 L 68.8125 12.929688 C 68.8125 9.210938 65.789062 6.1875 62.070312 6.1875 Z M 12.929688 8.644531 L 62.070312 8.644531 C 64.433594 8.644531 66.355469 10.566406 66.355469 12.929688 L 66.355469 46.710938 L 8.644531 46.710938 L 8.644531 12.929688 C 8.644531 10.566406 10.566406 8.644531 12.929688 8.644531 Z M 48.339844 66.355469 L 26.660156 66.355469 C 27.164062 64.925781 28.53125 63.902344 30.132812 63.902344 L 44.867188 63.902344 C 46.46875 63.902344 47.835938 64.925781 48.339844 66.355469 Z M 41.183594 61.445312 L 33.816406 61.445312 L 33.816406 58.988281 L 41.183594 58.988281 Z M 62.070312 56.53125 L 12.929688 56.53125 C 10.566406 56.53125 8.644531 54.609375 8.644531 52.246094 L 8.644531 49.164062 L 66.355469 49.164062 L 66.355469 52.246094 C 66.355469 54.609375 64.433594 56.53125 62.070312 56.53125 Z M 62.070312 56.53125 " fill-opacity="1" fill-rule="nonzero"/></g></svg>